<svg width="32" height="32" viewBox="0 0 32 32" fill="none" xmlns="http://www.w3.org/2000/svg">
<path fill-rule="evenodd" clip-rule="evenodd" d="M7 13.069V27C7 28.1046 7.89543 29 9 29H24C25.1046 29 26 28.1046 26 27V5C26 3.89543 25.1046 3 24 3H9.06898L11.069 5H24V27H9L9 15.069L7 13.069Z" fill="white"/>
<line x1="12" y1="24" x2="21" y2="24" stroke="white" stroke-width="2" stroke-linecap="round"/>
<line x1="12" y1="16" x2="21" y2="16" stroke="white" stroke-width="2" stroke-linecap="round"/>
<line x1="12" y1="20" x2="21" y2="20" stroke="white" stroke-width="2" stroke-linecap="round"/>
<path d="M12.5 10.2071L8 5.7071L5.70711 8L10.2071 12.5H12.5V10.2071ZM5 7.29289L7.29289 5L6.6486 4.3557C6.64821 4.35533 6.64766 4.35481 6.64695 4.35415C6.64369 4.3511 6.63716 4.3451 6.62761 4.33683C6.60839 4.32016 6.57771 4.29496 6.53751 4.26624C6.45514 4.20741 6.34355 4.14156 6.21689 4.09934C6.0923 4.05781 5.96325 4.04225 5.83243 4.06841C5.7053 4.09384 5.54169 4.16542 5.35355 4.35355L5.08418 4.08418L5.35355 4.35355L4.35355 5.35355C4.06878 5.63832 4.03566 5.89291 4.0685 6.09466C4.10639 6.32741 4.24346 6.53636 4.35355 6.64645L5 7.29289Z" stroke="white" stroke-linejoin="round"/>
<path d="M10 12L12 10V12H10Z" fill="white"/>
</svg>
