<svg width="32" height="32" viewBox="0 0 32 32" fill="none" xmlns="http://www.w3.org/2000/svg">
<g clip-path="url(#clip0_17_299)">
<path d="M3.17157 32L2 32C0.89543 32 -3.91405e-08 31.1046 -8.74228e-08 30L-1.38634e-07 28.8284C-1.6182e-07 28.298 0.210712 27.7893 0.585784 27.4142L27.4142 0.585786C27.7893 0.210713 28.298 -1.23694e-06 28.8284 -1.26013e-06L30 -1.31134e-06C31.1046 -1.35962e-06 32 0.89543 32 2L32 3.17157C32 3.70201 31.7893 4.21071 31.4142 4.58579L4.58579 31.4142C4.21071 31.7893 3.70201 32 3.17157 32Z" fill="white"/>
<path d="M32 28.8284L32 30C32 31.1046 31.1046 32 30 32L28.8284 32C28.298 32 27.7893 31.7893 27.4142 31.4142L0.585784 4.58579C0.210712 4.21072 -2.47389e-06 3.70201 -2.52026e-06 3.17157L-2.62268e-06 2C-2.71925e-06 0.895432 0.895429 2.71925e-06 2 2.62268e-06L3.17157 2.52026e-06C3.702 2.47389e-06 4.21071 0.210715 4.58578 0.585787L31.4142 27.4142C31.7893 27.7893 32 28.298 32 28.8284Z" fill="white"/>
</g>
<defs>
<clipPath id="clip0_17_299">
<rect width="32" height="32" fill="white"/>
</clipPath>
</defs>
</svg>
