<svg width="10" height="10" viewBox="0 0 10 10" fill="none" xmlns="http://www.w3.org/2000/svg">
<path d="M0.5 7.20711L5 2.70711L7.29289 5L2.79289 9.5H0.5V7.20711ZM8 4.2929L5.70711 2L6.3514 1.35571C6.35179 1.35534 6.35234 1.35482 6.35305 1.35415C6.35631 1.3511 6.36284 1.34511 6.37239 1.33683C6.39161 1.32017 6.42229 1.29496 6.46249 1.26624C6.54486 1.20741 6.65645 1.14156 6.78311 1.09934C6.9077 1.05781 7.03675 1.04225 7.16757 1.06842C7.2947 1.09384 7.45831 1.16542 7.64645 1.35356L7.91582 1.08418L7.64645 1.35356L8.64645 2.35356C8.93122 2.63832 8.96434 2.89292 8.9315 3.09466C8.89361 3.32742 8.75654 3.53636 8.64645 3.64645L8 4.2929Z" stroke="white" stroke-linejoin="round"/>
<path d="M3 9L1 7V9H3Z" fill="white"/>
</svg>
