<svg width="30" height="30" viewBox="0 0 30 30" fill="none" xmlns="http://www.w3.org/2000/svg">
<path fill-rule="evenodd" clip-rule="evenodd" d="M24.0928 24.0928C30.3412 17.8444 31.3355 8.7081 26.3137 3.6863C21.2919 -1.33551 12.1556 -0.341162 5.90722 5.90723C-0.34117 12.1556 -1.33551 21.2919 3.68629 26.3137C8.70809 31.3355 17.8444 30.3412 24.0928 24.0928ZM26.0147 12.0147C27.3954 10.634 26.6086 7.60864 24.2574 5.25736C21.9061 2.90609 18.8807 2.11929 17.5 3.5C16.1193 4.88071 16.9061 7.90608 19.2574 10.2574C21.6086 12.6086 24.634 13.3954 26.0147 12.0147Z" fill="white"/>
<path fill-rule="evenodd" clip-rule="evenodd" d="M26.4261 3.80045C31.3202 8.84554 30.2941 17.8915 24.0928 24.0928C17.8444 30.3412 8.70809 31.3355 3.68629 26.3137C1.42341 24.0508 0.382109 20.9525 0.492661 17.6594C0.305929 25.0065 21.5463 25.418 28 14C29.7189 10.9589 29.0254 6.69715 26.4261 3.80045ZM0.498782 17.5028C0.497725 17.5265 0.496727 17.5502 0.495788 17.5739C0.49696 17.5494 0.498368 17.5247 0.500016 17.5L0.498782 17.5028Z" fill="#2D2D2D"/>
</svg>
