<svg width="32" height="32" viewBox="0 0 32 32" fill="none" xmlns="http://www.w3.org/2000/svg">
<circle cx="16" cy="11" r="6" fill="white"/>
<path d="M10 11H22C22 11 22 16 20 18C18 20 16 20 16 20C16 20 14.0001 20 12 18C9.99995 16 10 11 10 11Z" fill="white"/>
<path d="M24 24C24 24 21 21 16 21C11 21 8 24 8 24V32H24V24Z" fill="white"/>
<path d="M16 30C8.26801 30 2 23.732 2 16H-2C-2 25.9411 6.05887 34 16 34V30ZM30 16C30 23.732 23.732 30 16 30V34C25.9411 34 34 25.9411 34 16H30ZM16 2C23.732 2 30 8.26801 30 16H34C34 6.05887 25.9411 -2 16 -2V2ZM16 -2C6.05887 -2 -2 6.05887 -2 16H2C2 8.26801 8.26801 2 16 2V-2Z" fill="white"/>
</svg>
