<svg width="32" height="32" viewBox="0 0 32 32" fill="none" xmlns="http://www.w3.org/2000/svg">
<g clip-path="url(#clip0_14_14)">
<circle cx="12.9928" cy="12.8929" r="9.32377" transform="rotate(-45 12.9928 12.8929)" stroke="white" stroke-width="2"/>
<path d="M25.843 27.1571C26.2335 27.5476 26.8667 27.5476 27.2572 27.1571C27.6478 26.7666 27.6478 26.1334 27.2572 25.7429L25.843 27.1571ZM18.543 19.8571L25.843 27.1571L27.2572 25.7429L19.9572 18.4429L18.543 19.8571Z" fill="white"/>
</g>
<defs>
<clipPath id="clip0_14_14">
<path d="M0 16C0 7.16344 7.16344 0 16 0C24.8366 0 32 7.16344 32 16C32 24.8366 24.8366 32 16 32C7.16344 32 0 24.8366 0 16Z" fill="white"/>
</clipPath>
</defs>
</svg>
