<svg width="32" height="32" viewBox="0 0 32 32" fill="none" xmlns="http://www.w3.org/2000/svg">
<path fill-rule="evenodd" clip-rule="evenodd" d="M4.71185 5.20053L9.37889 6.7661C9.98243 6.33257 10.6302 5.95675 11.3142 5.64671L12.2922 0.820579C13.4807 0.531276 14.7224 0.377922 16 0.377922C17.2775 0.377922 18.5192 0.531272 19.7077 0.820568L20.6857 5.64669C21.3697 5.95673 22.0175 6.33256 22.621 6.76609L27.2881 5.20052C28.9987 6.98802 30.2889 9.1811 31 11.621L27.3073 14.883C27.3431 15.2505 27.3615 15.6231 27.3615 16C27.3615 16.3769 27.3431 16.7495 27.3073 17.117L31 20.379C30.2889 22.8189 28.9987 25.012 27.2881 26.7995L22.621 25.2339C22.0175 25.6674 21.3697 26.0433 20.6857 26.3533L19.7077 31.1794C18.5192 31.4687 17.2775 31.6221 16 31.6221C14.7224 31.6221 13.4807 31.4687 12.2922 31.1794L11.3141 26.3533C10.6302 26.0432 9.98243 25.6674 9.3789 25.2339L4.71185 26.7995C3.00125 25.012 1.71102 22.8189 0.999939 20.379L4.69267 17.117C4.65681 16.7495 4.63845 16.3769 4.63845 16C4.63845 15.6231 4.65681 15.2505 4.69267 14.883L0.999939 11.621C1.71102 9.18112 3.00125 6.98804 4.71185 5.20053ZM16 23.101C19.9217 23.101 23.1009 19.9217 23.1009 16C23.1009 12.0783 19.9217 8.89906 16 8.89906C12.0782 8.89906 8.89905 12.0783 8.89905 16C8.89905 19.9217 12.0782 23.101 16 23.101Z" fill="white"/>
</svg>
