<svg width="32" height="32" viewBox="0 0 32 32" fill="none" xmlns="http://www.w3.org/2000/svg">
<path fill-rule="evenodd" clip-rule="evenodd" d="M16 6H28V30H16V19H14V30V32H16H28H30V30V6V4H28H16H14V6V13H16V6Z" fill="white"/>
<line x1="10" y1="16" x2="22" y2="16" stroke="white" stroke-width="2" stroke-linecap="round"/>
<path d="M19 20L23 16L19 12" stroke="white" stroke-width="2" stroke-linecap="round"/>
<path d="M16 30C8.26801 30 2 23.732 2 16H-2C-2 25.9411 6.05887 34 16 34V30ZM30 16C30 23.732 23.732 30 16 30V34C25.9411 34 34 25.9411 34 16H30ZM16 2C23.732 2 30 8.26801 30 16H34C34 6.05887 25.9411 -2 16 -2V2ZM16 -2C6.05887 -2 -2 6.05887 -2 16H2C2 8.26801 8.26801 2 16 2V-2Z" fill="white"/>
</svg>
