<svg width="32" height="32" viewBox="0 0 32 32" fill="none" xmlns="http://www.w3.org/2000/svg">
<path d="M9 6V10M9 14V10M9 10H13H5" stroke="white" stroke-width="2" stroke-linecap="round" stroke-linejoin="round"/>
<path fill-rule="evenodd" clip-rule="evenodd" d="M10.9342 16.2933C11.586 15.743 12 14.9199 12 14V13H13C14.6569 13 16 11.6569 16 10C16 8.34315 14.6569 7 13 7H12V6.52779C13.0615 5.57771 14.4633 5 16 5C19.3137 5 22 7.68629 22 11C22 11.0729 21.9987 11.1455 21.9961 11.2178C21.9689 12.2006 21.7505 16.2495 20 18C18 20 16 20 16 20C16 20 14.0001 20 12 18C11.5518 17.5518 11.204 16.9529 10.9342 16.2933ZM16 21C21 21 24 24 24 24V32H8V24C8 24 11 21 16 21Z" fill="white"/>
<path d="M16 30C8.26801 30 2 23.732 2 16H-2C-2 25.9411 6.05887 34 16 34V30ZM30 16C30 23.732 23.732 30 16 30V34C25.9411 34 34 25.9411 34 16H30ZM16 2C23.732 2 30 8.26801 30 16H34C34 6.05887 25.9411 -2 16 -2V2ZM16 -2C6.05887 -2 -2 6.05887 -2 16H2C2 8.26801 8.26801 2 16 2V-2Z" fill="white"/>
</svg>
