<svg width="100" height="100" viewBox="0 0 100 100" fill="none" xmlns="http://www.w3.org/2000/svg">
<circle cx="50" cy="50" r="42.5" stroke="black" stroke-width="5"/>
<rect x="16.5" y="46.5" width="30" height="17" rx="4.5" stroke="black" stroke-width="5"/>
<rect x="53.5" y="46.5" width="30" height="17" rx="4.5" stroke="black" stroke-width="5"/>
<path d="M49.7481 50.0681L44.5 53.1295V44.5H55.5V53.1295L50.2519 50.0681L50 49.9211L49.7481 50.0681Z" fill="black" stroke="black"/>
<path d="M9 15C10.3333 17.1667 27.5 36 80 36H93.5C97.1 11.2 72.6667 3.66668 60 3.00001C60 3.00001 49.5 1.50001 37 3.00001C24.5 4.50001 9 15 9 15Z" fill="black" stroke="black"/>
<path d="M91 53.5L83.5 34C85.5 28.1667 89.2 15 92 21C94.8 27 96 28.5 96.5 34C97 39.5 95.5 53.5 95.5 53.5H91Z" fill="black" stroke="black"/>
<line x1="94" y1="46.5" x2="10" y2="46.5" stroke="black" stroke-width="5"/>
</svg>
